<?xml version="1.0" standalone="no"?>
<!DOCTYPE svg PUBLIC "-//W3C//DTD SVG 20010904//EN"
 "http://www.w3.org/TR/2001/REC-SVG-20010904/DTD/svg10.dtd">
<svg version="1.0" xmlns="http://www.w3.org/2000/svg"
 width="1024.000000pt" height="1024.000000pt" viewBox="0 0 1024.000000 1024.000000"
 preserveAspectRatio="xMidYMid meet">
<metadata>
Created by potrace 1.14, written by Peter Selinger 2001-2017
</metadata>
<g transform="translate(0.000000,1024.000000) scale(0.100000,-0.100000)"
fill="#000000" stroke="none">
<path d="M0 5120 l0 -5120 5120 0 5120 0 0 5120 0 5120 -5120 0 -5120 0 0
-5120z m3838 2544 c59 -9 112 -21 118 -28 12 -12 214 -431 214 -444 0 -4 -27
-29 -60 -55 -59 -48 -59 -49 -45 -76 7 -15 17 -50 20 -77 5 -43 -1 -66 -45
-183 l-50 -134 0 -160 0 -159 -50 -156 c-35 -113 -55 -198 -69 -302 -11 -80
-23 -160 -27 -179 -7 -32 -6 -33 17 -26 13 3 52 20 86 36 66 32 110 76 142
144 l19 41 114 17 113 17 115 119 115 120 291 160 c161 89 296 161 301 161 10
0 243 -294 243 -308 0 -19 -111 -297 -123 -309 -33 -32 -430 -254 -447 -250
-13 3 -44 -19 -102 -70 -45 -41 -165 -135 -266 -209 -165 -122 -191 -138 -265
-160 -44 -13 -84 -28 -87 -32 -11 -13 -194 -247 -196 -250 0 -1 -37 -9 -80
-17 -69 -14 -84 -21 -120 -56 -60 -59 -72 -133 -52 -328 13 -134 13 -145 -4
-183 l-18 -41 40 -186 c22 -102 40 -196 40 -208 0 -12 29 -84 64 -160 35 -76
67 -146 70 -155 3 -9 82 -62 175 -118 l170 -101 243 -24 c310 -31 347 -31 558
5 133 23 207 30 308 30 127 0 135 1 166 25 l33 25 249 0 249 1 59 44 59 45
185 0 c175 0 189 1 281 29 91 28 111 30 386 41 276 11 296 13 415 44 114 30
135 33 235 28 l110 -4 52 41 c125 100 397 107 496 13 48 -45 61 -80 61 -162 0
-85 -22 -140 -73 -183 -38 -32 -119 -62 -190 -72 -29 -4 -68 -15 -85 -25 -17
-10 -53 -25 -81 -34 -76 -24 -402 -66 -511 -66 l-97 0 -67 -50 -67 -50 -103 0
c-101 0 -103 0 -150 -35 l-48 -35 -225 0 -225 0 -129 -69 c-112 -60 -136 -70
-196 -75 -57 -4 -74 -10 -102 -35 -43 -37 -133 -71 -190 -71 -25 0 -71 9 -102
20 l-58 20 -80 -21 c-44 -11 -138 -24 -210 -29 -99 -6 -154 -16 -230 -39
l-100 -31 -285 0 -285 0 -148 40 c-137 37 -158 40 -280 40 l-131 0 -37 36
c-36 35 -40 36 -125 41 l-89 6 -68 55 c-93 75 -250 243 -321 341 -126 176
-221 380 -275 593 -16 62 -45 149 -63 193 l-35 80 45 173 c25 95 43 175 40
178 -14 14 -162 -62 -236 -120 -52 -41 -94 -66 -118 -71 -25 -4 -69 -31 -128
-78 l-90 -71 -181 -42 c-99 -23 -182 -40 -184 -38 -2 2 -21 77 -42 166 l-37
162 104 116 c81 91 125 131 198 179 70 46 101 74 123 110 30 47 31 48 179 101
145 52 151 55 217 119 40 39 101 84 150 111 l82 46 6 54 c4 30 21 88 38 128
50 120 71 313 71 660 l0 284 48 86 47 87 3 195 c3 188 4 196 28 227 13 17 24
35 24 40 0 4 -17 22 -37 40 l-38 31 54 164 c29 89 60 168 68 175 14 11 13 20
-11 84 -15 39 -25 73 -24 75 2 1 44 20 95 42 50 22 120 60 155 86 65 46 162
96 186 96 7 0 61 -7 120 -16z"/>
</g>
</svg>
